<?xml version="1.0" encoding="UTF-8" standalone="no"?>
<!-- Created with Inkscape (http://www.inkscape.org/) -->

<svg
   xmlns:dc="http://purl.org/dc/elements/1.1/"
   xmlns:cc="http://creativecommons.org/ns#"
   xmlns:rdf="http://www.w3.org/1999/02/22-rdf-syntax-ns#"
   xmlns:svg="http://www.w3.org/2000/svg"
   xmlns="http://www.w3.org/2000/svg"
   xmlns:xlink="http://www.w3.org/1999/xlink"
   xmlns:sodipodi="http://sodipodi.sourceforge.net/DTD/sodipodi-0.dtd"
   xmlns:inkscape="http://www.inkscape.org/namespaces/inkscape"
   width="210mm"
   height="297mm"
   viewBox="0 0 210 297"
   version="1.1"
   id="svg4555"
   inkscape:version="0.92.2 5c3e80d, 2017-08-06"
   sodipodi:docname="Infographic.svg">
  <defs
     id="defs4549">
    <linearGradient
       id="linearGradient5237"
       inkscape:collect="always">
      <stop
         id="stop5233"
         offset="0"
         style="stop-color:#cbecba;stop-opacity:1" />
      <stop
         id="stop5235"
         offset="1"
         style="stop-color:#7bc753;stop-opacity:1" />
    </linearGradient>
    <linearGradient
       inkscape:collect="always"
       id="linearGradient5227">
      <stop
         style="stop-color:#cbecba;stop-opacity:1"
         offset="0"
         id="stop5223" />
      <stop
         style="stop-color:#7bc753;stop-opacity:1"
         offset="1"
         id="stop5225" />
    </linearGradient>
    <linearGradient
       inkscape:collect="always"
       id="linearGradient5211">
      <stop
         style="stop-color:#a9b2d1;stop-opacity:1"
         offset="0"
         id="stop5207" />
      <stop
         style="stop-color:#4b5d9a;stop-opacity:1"
         offset="1"
         id="stop5209" />
    </linearGradient>
    <linearGradient
       id="linearGradient5205"
       inkscape:collect="always">
      <stop
         id="stop5201"
         offset="0"
         style="stop-color:#ffe0c9;stop-opacity:1" />
      <stop
         id="stop5203"
         offset="1"
         style="stop-color:#e49860;stop-opacity:1" />
    </linearGradient>
    <linearGradient
       inkscape:collect="always"
       id="linearGradient5197">
      <stop
         style="stop-color:#ffe0c9;stop-opacity:1"
         offset="0"
         id="stop5193" />
      <stop
         style="stop-color:#e49860;stop-opacity:1"
         offset="1"
         id="stop5195" />
    </linearGradient>
    <linearGradient
       inkscape:collect="always"
       xlink:href="#linearGradient5197"
       id="linearGradient5189"
       x1="357.05164"
       y1="430.38965"
       x2="34.999996"
       y2="707.51971"
       gradientUnits="userSpaceOnUse" />
    <linearGradient
       inkscape:collect="always"
       xlink:href="#linearGradient5205"
       id="linearGradient5199"
       gradientUnits="userSpaceOnUse"
       x1="357.05164"
       y1="430.38965"
       x2="34.999996"
       y2="707.51971" />
    <linearGradient
       inkscape:collect="always"
       xlink:href="#linearGradient5211"
       id="linearGradient5213"
       x1="94"
       y1="383.51971"
       x2="-212"
       y2="524.51971"
       gradientUnits="userSpaceOnUse" />
    <linearGradient
       inkscape:collect="always"
       xlink:href="#linearGradient5211"
       id="linearGradient5215"
       x1="94"
       y1="383.51971"
       x2="-212"
       y2="524.51971"
       gradientUnits="userSpaceOnUse" />
    <linearGradient
       inkscape:collect="always"
       xlink:href="#linearGradient5227"
       id="linearGradient5229"
       x1="478"
       y1="151.51968"
       x2="237.91016"
       y2="466.92773"
       gradientUnits="userSpaceOnUse" />
    <linearGradient
       inkscape:collect="always"
       xlink:href="#linearGradient5237"
       id="linearGradient5231"
       x1="478"
       y1="151.51968"
       x2="237.91016"
       y2="466.92773"
       gradientUnits="userSpaceOnUse" />
    <filter
       inkscape:collect="always"
       style="color-interpolation-filters:sRGB"
       id="filter5445"
       x="-0.020691005"
       width="1.041382"
       y="-0.025387723"
       height="1.0507754">
      <feGaussianBlur
         inkscape:collect="always"
         stdDeviation="2.0729526"
         id="feGaussianBlur5447" />
    </filter>
  </defs>
  <sodipodi:namedview
     id="base"
     pagecolor="#ffffff"
     bordercolor="#666666"
     borderopacity="1.0"
     inkscape:pageopacity="0.0"
     inkscape:pageshadow="2"
     inkscape:zoom="0.70710678"
     inkscape:cx="163.73921"
     inkscape:cy="741.84325"
     inkscape:document-units="mm"
     inkscape:current-layer="layer1"
     showgrid="false"
     showborder="false"
     inkscape:snap-object-midpoints="false"
     inkscape:snap-center="true"
     inkscape:window-width="1920"
     inkscape:window-height="1172"
     inkscape:window-x="1280"
     inkscape:window-y="0"
     inkscape:window-maximized="1" />
  <metadata
     id="metadata4552">
    <rdf:RDF>
      <cc:Work
         rdf:about="">
        <dc:format>image/svg+xml</dc:format>
        <dc:type
           rdf:resource="http://purl.org/dc/dcmitype/StillImage" />
        <dc:title></dc:title>
      </cc:Work>
    </rdf:RDF>
  </metadata>
  <g
     inkscape:label="Ebene 1"
     inkscape:groupmode="layer"
     id="layer1">
    <path
       style="opacity:0.198;fill:#000000;fill-opacity:1;fill-rule:evenodd;stroke:none;stroke-width:0.60206372;stroke-miterlimit:4;stroke-dasharray:none;stroke-dashoffset:0;stroke-opacity:1;filter:url(#filter5445)"
       d="m 85.903799,21.270021 a 74.538529,74.538529 0 0 0 -42.086318,13.023494 74.538529,74.538529 0 0 0 -4.42247,3.362586 74.538529,74.538529 0 0 0 -44.8608271,-15.18357 74.538529,74.538529 0 0 0 -74.4109599,70.923835 74.538529,74.538529 0 0 0 -0.125058,2.186948 74.538529,74.538529 0 0 0 0.02119,0.754991 74.538529,74.538529 0 0 0 -0.02377,0.672828 74.538529,74.538529 0 0 0 0.09715,1.944063 74.538529,74.538529 0 0 0 0.260967,5.211584 74.538529,74.538529 0 0 0 0.167431,1.29915 74.538529,74.538529 0 0 0 0.953947,6.31227 74.538529,74.538529 0 0 0 0.04341,0.18655 74.538529,74.538529 0 0 0 48.51125,55.5532 74.538529,74.538529 0 0 0 1.628325,4.39818 74.538529,74.538529 0 0 0 5.16e-4,10e-4 74.538529,74.538529 0 0 0 64.989831,45.19105 74.538529,74.538529 0 0 0 2.169893,0.1235 74.538529,74.538529 0 0 0 0.736907,-0.0207 74.538529,74.538529 0 0 0 0.664043,0.0233 74.538529,74.538529 0 0 0 1.952334,-0.0977 74.538529,74.538529 0 0 0 5.219319,-0.26148 74.538529,74.538529 0 0 0 1.235067,-0.15917 74.538529,74.538529 0 0 0 6.394958,-0.96635 74.538529,74.538529 0 0 0 0.03049,-0.007 74.538529,74.538529 0 0 0 56.178476,-49.9284 74.538529,74.538529 0 0 0 49.07504,-66.123627 74.538529,74.538529 0 0 0 0.13746,-3.88193 A 74.538529,74.538529 0 0 0 85.903799,21.270021 Z M 40.219251,60.011324 a 36.999336,36.999336 0 0 1 22.364009,7.593851 36.999336,36.999336 0 0 1 0.46767,0.344167 36.999336,36.999336 0 0 1 4.007509,3.622517 36.999336,36.999336 0 0 1 2.322337,2.706295 36.999336,36.999336 0 0 1 0.46509,0.646473 36.999336,36.999336 0 0 1 0.30334,0.431498 36.999336,36.999336 0 0 1 1.34462,1.927529 36.999336,36.999336 0 0 1 0.492993,0.852662 36.999336,36.999336 0 0 1 0.17725,0.315228 36.999336,36.999336 0 0 1 1.138949,2.041218 36.999336,36.999336 0 0 1 0.440282,0.976685 36.999336,36.999336 0 0 1 0.146246,0.333828 36.999336,36.999336 0 0 1 0.888834,2.048454 36.999336,36.999336 0 0 1 0.392742,1.169437 36.999336,36.999336 0 0 1 0.160197,0.496094 36.999336,36.999336 0 0 1 0.583943,1.829348 36.999336,36.999336 0 0 1 0.312643,1.370457 36.999336,36.999336 0 0 1 0.09353,0.433567 36.999336,36.999336 0 0 1 0.379307,1.789554 36.999336,36.999336 0 0 1 0.194821,1.563212 36.999336,36.999336 0 0 1 0.04392,0.390673 36.999336,36.999336 0 0 1 0.190685,1.743564 36.999336,36.999336 0 0 1 0.08837,2.372982 36.999336,36.999336 0 0 1 -0.128159,2.554886 36.999336,36.999336 0 0 1 -11.438578,24.289477 36.999336,36.999336 0 0 1 -2.717146,2.33061 36.999336,36.999336 0 0 1 -0.587045,0.4222 36.999336,36.999336 0 0 1 -0.378272,0.26613 36.999336,36.999336 0 0 1 -2.042252,1.42369 36.999336,36.999336 0 0 1 -0.737939,0.42633 36.999336,36.999336 0 0 1 -0.440799,0.24804 36.999336,36.999336 0 0 1 -2.026234,1.13017 36.999336,36.999336 0 0 1 -0.932241,0.42013 36.999336,36.999336 0 0 1 -0.30851,0.13487 36.999336,36.999336 0 0 1 -2.119767,0.91881 36.999336,36.999336 0 0 1 -1.18804,0.39894 36.999336,36.999336 0 0 1 -0.114205,0.0367 36.999336,36.999336 0 0 1 -2.190049,0.69918 36.999336,36.999336 0 0 1 -1.366324,0.31058 36.999336,36.999336 0 0 1 -0.327112,0.0708 36.999336,36.999336 0 0 1 -1.886707,0.40049 36.999336,36.999336 0 0 1 -1.557009,0.19327 36.999336,36.999336 0 0 1 -0.316262,0.0357 36.999336,36.999336 0 0 1 -1.839164,0.20153 36.999336,36.999336 0 0 1 -2.357477,0.0868 36.999336,36.999336 0 0 1 -22.057569,-7.34891 36.999336,36.999336 0 0 1 -14.9422402,-29.650393 36.999336,36.999336 0 0 1 7.9375002,-22.831681 36.999336,36.999336 0 0 1 3.05201,-3.460771 36.999336,36.999336 0 0 1 2.328023,-2.085145 36.999336,36.999336 0 0 1 1.409733,-1.067636 36.999336,36.999336 0 0 1 1.151868,-0.871781 36.999336,36.999336 0 0 1 0.415478,-0.303855 36.999336,36.999336 0 0 1 1.390613,-0.849045 36.999336,36.999336 0 0 1 1.211296,-0.73949 36.999336,36.999336 0 0 1 0.582393,-0.341582 36.999336,36.999336 0 0 1 0.0067,-0.0041 36.999336,36.999336 0 0 1 2.539896,-1.221115 36.999336,36.999336 0 0 1 0.611849,-0.28112 36.999336,36.999336 0 0 1 0.252698,-0.11317 36.999336,36.999336 0 0 1 0.988055,-0.358635 36.999336,36.999336 0 0 1 1.457274,-0.529167 36.999336,36.999336 0 0 1 0.553453,-0.189653 36.999336,36.999336 0 0 1 0.550873,-0.182933 36.999336,36.999336 0 0 1 2.274279,-0.57671 36.999336,36.999336 0 0 1 5.16e-4,0 36.999336,36.999336 0 0 1 0.535884,-0.125574 36.999336,36.999336 0 0 1 0.329698,-0.0739 36.999336,36.999336 0 0 1 0.528648,-0.118853 36.999336,36.999336 0 0 1 2.017966,-0.301276 36.999336,36.999336 0 0 1 0.563272,-0.0739 36.999336,36.999336 0 0 1 1.160653,-0.141079 36.999336,36.999336 0 0 1 3.149163,-0.157096 z"
       id="path5248"
       inkscape:connector-curvature="0"
       inkscape:export-filename="/home/sebastian/Infographic.png"
       inkscape:export-xdpi="194.75999"
       inkscape:export-ydpi="194.75999" />
    <path
       style="opacity:1;fill:url(#linearGradient5231);fill-opacity:1;fill-rule:evenodd;stroke:none;stroke-width:2.27551651;stroke-miterlimit:4;stroke-dasharray:none;stroke-dashoffset:0;stroke-opacity:1"
       d="M 324.67578 70.390625 A 281.72043 281.72043 0 0 0 62.318359 249.54102 A 139.84001 139.84001 0 0 1 152.00977 216.81445 A 139.84001 139.84001 0 0 1 291.84961 356.6543 A 139.84001 139.84001 0 0 1 152.00977 496.49414 A 139.84001 139.84001 0 0 1 68.640625 468.7168 A 281.72043 281.72043 0 0 0 324.67578 633.83203 A 281.72043 281.72043 0 0 0 606.39648 352.11133 A 281.72043 281.72043 0 0 0 324.67578 70.390625 z "
       transform="scale(0.26458333)"
       id="path5100"
       inkscape:export-filename="/home/sebastian/Infographic.png"
       inkscape:export-xdpi="194.75999"
       inkscape:export-ydpi="194.75999" />
    <path
       style="opacity:1;fill:url(#linearGradient5189);fill-opacity:1;fill-rule:evenodd;stroke:none;stroke-width:2.27551651;stroke-miterlimit:4;stroke-dasharray:none;stroke-dashoffset:0;stroke-opacity:1"
       d="M 42.167969 270.36133 A 281.72043 281.72043 0 0 0 -129.71094 529.32227 A 281.72043 281.72043 0 0 0 152.00977 811.04297 A 281.72043 281.72043 0 0 0 433.72852 529.32227 A 281.72043 281.72043 0 0 0 262.28125 270.75391 A 139.84001 139.84001 0 0 1 291.84961 356.6543 A 139.84001 139.84001 0 0 1 152.00977 496.49414 A 139.84001 139.84001 0 0 1 12.167969 356.6543 A 139.84001 139.84001 0 0 1 42.167969 270.36133 z "
       transform="scale(0.26458333)"
       id="circle5102"
       inkscape:export-filename="/home/sebastian/Infographic.png"
       inkscape:export-xdpi="194.75999"
       inkscape:export-ydpi="194.75999" />
    <path
       style="opacity:1;fill:url(#linearGradient5215);fill-opacity:1;fill-rule:evenodd;stroke:none;stroke-width:2.27551651;stroke-miterlimit:4;stroke-dasharray:none;stroke-dashoffset:0;stroke-opacity:1"
       d="M -20.658203 74.935547 A 281.72043 281.72043 0 0 0 -302.37891 356.65625 A 281.72043 281.72043 0 0 0 -20.658203 638.375 A 281.72043 281.72043 0 0 0 237.91016 466.92773 A 139.84001 139.84001 0 0 1 152.00977 496.49414 A 139.84001 139.84001 0 0 1 12.167969 356.6543 A 139.84001 139.84001 0 0 1 152.00977 216.81445 A 139.84001 139.84001 0 0 1 238.30273 246.81641 A 281.72043 281.72043 0 0 0 -20.658203 74.935547 z "
       transform="scale(0.26458333)"
       id="circle5104"
       inkscape:export-filename="/home/sebastian/Infographic.png"
       inkscape:export-xdpi="194.75999"
       inkscape:export-ydpi="194.75999" />
    <path
       style="opacity:0.2;fill:#1a1a1a;fill-opacity:1;fill-rule:evenodd;stroke:none;stroke-width:2.27551651;stroke-miterlimit:4;stroke-dasharray:none;stroke-dashoffset:0;stroke-opacity:1"
       d="M 139.04492 125.28711 A 281.72043 281.72043 0 0 0 53.703125 257.28125 A 139.84001 139.84001 0 0 1 63.798828 248.24023 A 139.84001 139.84001 0 0 1 64.150391 247.93164 A 139.84001 139.84001 0 0 1 74.480469 240.39258 A 139.84001 139.84001 0 0 1 75.509766 239.65625 A 139.84001 139.84001 0 0 1 85.789062 233.62695 A 139.84001 139.84001 0 0 1 87.650391 232.55859 A 139.84001 139.84001 0 0 1 97.726562 227.93359 A 139.84001 139.84001 0 0 1 100.43555 226.7207 A 139.84001 139.84001 0 0 1 110.01562 223.43359 A 139.84001 139.84001 0 0 1 113.75977 222.18945 A 139.84001 139.84001 0 0 1 122.7207 220.08789 A 139.84001 139.84001 0 0 1 127.45898 219.02539 A 139.84001 139.84001 0 0 1 135.7207 217.94141 A 139.84001 139.84001 0 0 1 141.4707 217.24219 A 139.84001 139.84001 0 0 1 152.00977 216.81445 A 139.84001 139.84001 0 0 1 236.53516 245.51562 A 139.84001 139.84001 0 0 1 238.30273 246.81641 A 281.72043 281.72043 0 0 0 139.04492 125.28711 z "
       transform="scale(0.26458333)"
       id="path5149"
       inkscape:export-filename="/home/sebastian/Infographic.png"
       inkscape:export-xdpi="194.75999"
       inkscape:export-ydpi="194.75999" />
    <path
       style="opacity:1;fill:url(#linearGradient5229);fill-opacity:1;fill-rule:evenodd;stroke:none;stroke-width:2.27551651;stroke-miterlimit:4;stroke-dasharray:none;stroke-dashoffset:0;stroke-opacity:1"
       d="M 324.67578 70.390625 A 281.72043 281.72043 0 0 0 62.318359 249.54102 A 139.84001 139.84001 0 0 1 152.00977 216.81445 A 139.84001 139.84001 0 0 1 291.84961 356.6543 A 139.84001 139.84001 0 0 1 291.36523 366.31055 C 449.84983 366.40751 547.31193 366.59242 605.87695 366.7832 A 281.72043 281.72043 0 0 0 606.39648 352.11133 A 281.72043 281.72043 0 0 0 324.67578 70.390625 z "
       transform="scale(0.26458333)"
       id="path5128"
       inkscape:export-filename="/home/sebastian/Infographic.png"
       inkscape:export-xdpi="194.75999"
       inkscape:export-ydpi="194.75999" />
    <path
       style="opacity:0.2;fill:#1a1a1a;fill-opacity:1;fill-rule:evenodd;stroke:none;stroke-width:2.27551651;stroke-miterlimit:4;stroke-dasharray:none;stroke-dashoffset:0;stroke-opacity:1"
       d="M 253.44922 260.50781 A 139.84001 139.84001 0 0 1 262.49023 271.04297 A 139.84001 139.84001 0 0 1 262.96875 271.71094 A 139.84001 139.84001 0 0 1 270.43945 282.41992 A 139.84001 139.84001 0 0 1 271.27148 283.86914 A 139.84001 139.84001 0 0 1 277.2207 294.5293 A 139.84001 139.84001 0 0 1 278.25391 296.83984 A 139.84001 139.84001 0 0 1 282.75781 307.2207 A 139.84001 139.84001 0 0 1 283.91016 310.68945 A 139.84001 139.84001 0 0 1 287.01172 320.40039 A 139.84001 139.84001 0 0 1 288.04883 325.01758 A 139.84001 139.84001 0 0 1 289.94141 333.93945 A 139.84001 139.84001 0 0 1 290.63672 339.65234 A 139.84001 139.84001 0 0 1 291.53906 347.89453 A 139.84001 139.84001 0 0 1 291.84961 356.6543 A 139.84001 139.84001 0 0 1 152.00977 496.49414 A 139.84001 139.84001 0 0 1 151.07031 496.44727 C 152.9138 526.23807 154.49141 551.86286 156.06836 577.48047 A 281.72043 281.72043 0 0 0 324.67578 633.83203 A 281.72043 281.72043 0 0 0 436.73438 610.45703 A 281.72043 281.72043 0 0 0 448.48438 511.13086 A 281.72043 281.72043 0 0 0 253.44922 260.50781 z "
       transform="scale(0.26458333)"
       id="path5151"
       inkscape:export-filename="/home/sebastian/Infographic.png"
       inkscape:export-xdpi="194.75999"
       inkscape:export-ydpi="194.75999" />
    <path
       style="opacity:1;fill:url(#linearGradient5199);fill-opacity:1;fill-rule:evenodd;stroke:none;stroke-width:2.27551651;stroke-miterlimit:4;stroke-dasharray:none;stroke-dashoffset:0;stroke-opacity:1"
       d="M 261.27539 269.41602 A 139.84001 139.84001 0 0 1 291.84961 356.6543 A 139.84001 139.84001 0 0 1 152.00977 496.49414 A 139.84001 139.84001 0 0 1 139.33594 495.85938 C 135.80945 654.24803 133.51682 751.66173 132.05859 810.19727 A 281.72043 281.72043 0 0 0 146.71484 811.0332 A 281.72043 281.72043 0 0 0 434.4668 535.47852 A 281.72043 281.72043 0 0 0 261.27539 269.41602 z "
       transform="scale(0.26458333)"
       id="path5145"
       inkscape:export-filename="/home/sebastian/Infographic.png"
       inkscape:export-xdpi="194.75999"
       inkscape:export-ydpi="194.75999" />
    <path
       style="opacity:0.2;fill:#1a1a1a;fill-opacity:0.99214663;fill-rule:evenodd;stroke:none;stroke-width:2.27551651;stroke-miterlimit:4;stroke-dasharray:none;stroke-dashoffset:0;stroke-opacity:1"
       d="M 12.216797 355.68555 C -19.169243 357.62088 -46.391568 359.29055 -73.154297 360.93164 A 281.72043 281.72043 0 0 0 -129.71094 529.32227 A 281.72043 281.72043 0 0 0 -107.11719 639.76562 A 281.72043 281.72043 0 0 0 -2.53125 653.0957 A 281.72043 281.72043 0 0 0 248.13281 458.11328 A 139.84001 139.84001 0 0 1 237.58984 467.1582 A 139.84001 139.84001 0 0 1 237 467.58008 A 139.84001 139.84001 0 0 1 226.22266 475.0957 A 139.84001 139.84001 0 0 1 224.77734 475.92578 A 139.84001 139.84001 0 0 1 214.11328 481.875 A 139.84001 139.84001 0 0 1 211.81836 482.90234 A 139.84001 139.84001 0 0 1 201.41211 487.41211 A 139.84001 139.84001 0 0 1 198.04297 488.53125 A 139.84001 139.84001 0 0 1 188.23438 491.66406 A 139.84001 139.84001 0 0 1 183.68945 492.68359 A 139.84001 139.84001 0 0 1 174.70508 494.58984 A 139.84001 139.84001 0 0 1 169.05859 495.27539 A 139.84001 139.84001 0 0 1 160.72852 496.18555 A 139.84001 139.84001 0 0 1 152.00977 496.49414 A 139.84001 139.84001 0 0 1 12.167969 356.6543 A 139.84001 139.84001 0 0 1 12.216797 355.68555 z "
       transform="scale(0.26458333)"
       id="path5153"
       inkscape:export-filename="/home/sebastian/Infographic.png"
       inkscape:export-xdpi="194.75999"
       inkscape:export-ydpi="194.75999" />
    <path
       style="opacity:1;fill:url(#linearGradient5213);fill-opacity:1;fill-rule:evenodd;stroke:none;stroke-width:2.27551651;stroke-miterlimit:4;stroke-dasharray:none;stroke-dashoffset:0;stroke-opacity:1"
       d="M -301.5293 336.60352 A 281.72043 281.72043 0 0 0 -302.36914 351.25977 A 281.72043 281.72043 0 0 0 -26.876953 639.07422 A 281.72043 281.72043 0 0 0 239.21875 465.94727 A 139.84001 139.84001 0 0 1 152.00977 496.49414 A 139.84001 139.84001 0 0 1 12.167969 356.6543 A 139.84001 139.84001 0 0 1 12.804688 343.95117 C -145.58168 340.39013 -242.99442 338.07452 -301.5293 336.60352 z "
       transform="scale(0.26458333)"
       id="path5147"
       inkscape:export-filename="/home/sebastian/Infographic.png"
       inkscape:export-xdpi="194.75999"
       inkscape:export-ydpi="194.75999" />
    <circle
       style="opacity:1;fill:#f62e38;fill-opacity:1;fill-rule:evenodd;stroke:none;stroke-width:0.29885158;stroke-miterlimit:4;stroke-dasharray:none;stroke-dashoffset:0;stroke-opacity:1"
       id="circle5116"
       cx="-17.724733"
       cy="-151.43315"
       r="36.999336" />
  </g>
</svg>
